<?xml version="1.0" encoding="UTF-8"?>
<svg width="8px" height="5px" viewBox="0 0 8 5" version="1.1" xmlns="http://www.w3.org/2000/svg" xmlns:xlink="http://www.w3.org/1999/xlink">
    <!-- Generator: Sketch 56.2 (81672) - https://sketch.com -->
    <title></title>
    <desc>Created with Sketch.</desc>
    <g id="Page-1" stroke="none" stroke-width="1" fill="none" fill-rule="evenodd">
        <g id="Virtual-TOC" transform="translate(-12.000000, -166.000000)" fill="#343434" fill-rule="nonzero">
            <path d="M19.7968843,169.898442 C19.7968843,169.960942 19.7656343,170.031255 19.7187592,170.07813 L19.3281337,170.468755 C19.2812587,170.51563 19.2187586,170.54688 19.148446,170.54688 C19.0859459,170.54688 19.0156334,170.51563 18.9687583,170.468755 L15.8984421,167.398439 L12.828126,170.468755 C12.7812509,170.51563 12.7109383,170.54688 12.6484383,170.54688 C12.5859382,170.54688 12.5156256,170.51563 12.4687506,170.468755 L12.0781251,170.07813 C12.03125,170.031255 12,169.960942 12,169.898442 C12,169.835942 12.03125,169.765629 12.0781251,169.718754 L15.7187544,166.078125 C15.7656295,166.03125 15.8359421,166 15.8984421,166 C15.9609422,166 16.0312548,166.03125 16.0781299,166.078125 L19.7187592,169.718754 C19.7656343,169.765629 19.7968843,169.835942 19.7968843,169.898442 Z" id=""></path>
        </g>
    </g>
</svg>